<?xml version="1.0" encoding="utf-8"?>
<!-- Generator: Adobe Illustrator 24.0.1, SVG Export Plug-In . SVG Version: 6.00 Build 0)  -->
<svg version="1.1" id="Layer_1" xmlns="http://www.w3.org/2000/svg" xmlns:xlink="http://www.w3.org/1999/xlink" x="0px" y="0px"
	 viewBox="0 0 1719 2439" style="enable-background:new 0 0 1719 2439;" xml:space="preserve">
<g transform="translate(0.000000,2439.000000) scale(0.100000,-0.100000)">
	<path class="st0" d="M3810,12675V2260h390h390l-2,10413l-3,10412l-387,3l-388,2V12675z"/>
	<path class="st0" d="M1346,22900c-136-12-304-42-421-75c-106-30-278-113-320-153c-17-15-47-41-68-56c-91-69-190-242-232-408
		c-23-92-47-258-38-267c2-3,43,14,91,37c48,22,98,43,112,46s58,24,98,46l72,41v67c0,143,55,268,160,365c37,34,83,67,101,74
		c19,6,66,23,105,37s97,29,128,32l58,7l-7-59c-12-107-236-1207-271-1326c-39-138-81-225-124-261c-42-36-119-57-208-57h-74l-149-142
		c-82-77-146-144-143-147s231-15,507-26l502-21l142,146c129,131,141,146,120,152c-12,3-124,6-249,7c-126,1-228,3-228,5s33,36,74,76
		c41,39,80,84,88,98c7,15,31,54,52,86c54,82,112,212,135,298l18,73l130,6c147,8,214,19,328,56c187,61,311,139,439,274
		c73,77,95,110,140,203c76,157,98,267,76,386c-21,115-107,233-209,285c-66,33-205,69-326,84C1833,22905,1480,22911,1346,22900z
		 M1772,22705c158-33,273-114,302-214c33-112,14-275-44-390c-53-106-209-241-325-282c-59-21-166-38-232-39c-29,0-45-5-53-17
		c-15-25-17-34,91,496l93,461h47C1677,22720,1732,22713,1772,22705z"/>
	<path class="st0" d="M2345,19250c-77-15-183-31-235-34c-383-27-540-59-735-152c-60-28-97-55-150-108c-82-83-175-218-212-308
		c-35-87-70-228-78-321l-7-79l191,97l191,96v58c0,79,34,205,73,269c62,105,187,186,332,217c71,15,315,20,347,7c17-7,35,25-464-841
		c-93-161-174-298-179-305c-5-6-51-72-101-146s-108-160-129-191c-48-69-198-214-241-233c-116-50-148-59-228-64c-76-4-93-2-155,23
		c-77,30-137,81-186,157l-31,48l-134-128c-74-70-134-133-134-139c0-18,104-97,180-137c245-128,572-109,807,47c66,44,111,86,226,210
		c48,51,247,340,247,358c0,5,151,9,359,9h360l5-42c3-24,18-185,32-358s27-315,28-316c2-2,686,114,712,121c18,4,24,19,39,95
		c10,50,16,92,14,93c-2,2-51,0-109-4c-134-8-203,4-234,42c-30,36-62,154-80,304c-24,184-104,1170-110,1350c-4,88-9,199-12,248
		C2537,19297,2554,19292,2345,19250z M2205,18307c19-225,35-419,35-433v-24h-285c-157,0-285,3-285,7c0,3,20,40,44,82s51,92,59,113
		c16,38,216,389,227,398c4,3,42,68,85,144c44,76,80,135,82,130C2168,18719,2185,18531,2205,18307z"/>
	<path class="st0" d="M10040,10745V2260h380h380v8485v8485h-380h-380V10745z"/>
	<path class="st0" d="M7300,19189c-266-28-544-117-682-219c-160-117-284-357-318-614c-19-142-32-140,178-34l183,93l4,80
		c6,128,46,226,129,313c94,101,227,167,375,187c44,6,53,5,49-6c-3-8-29-140-57-294c-200-1070-252-1275-347-1353c-48-40-95-52-199-52
		h-87l-149-147c-82-80-148-148-146-149c1-1,232-12,512-24l510-22l50,56c28,30,92,100,144,155l93,101h-255h-255l52,54
		c134,137,241,314,292,486l26,87l147,11c374,28,628,156,806,407c151,211,198,396,145,567c-27,89-68,141-157,199
		c-82,53-156,79-298,105C7939,19195,7439,19204,7300,19189z M7763,19015c124-22,189-49,251-106c75-68,99-127,100-244
		c1-164-43-272-163-398c-116-122-265-187-426-187c-53,0-65-3-79-22l-16-23l5,25c21,108,186,930,190,948
		C7631,19035,7646,19035,7763,19015z"/>
	<path class="st0" d="M16310,8990V2260h385h385v6730v6730h-385h-385V8990z"/>
	<path class="st0" d="M1558,15580c-80-14-151-38-251-85c-84-40-111-59-191-138c-134-132-212-258-269-432c-15-44-67-278-116-520
		c-129-635-147-687-246-739c-51-27-70-31-161-34l-103-4l-110-113C7,13409,0,13399,0,13362v-40l113-6c339-18,1338-45,1392-37
		c79,12,142,29,186,51c37,19,274,205,297,233c8,9,22,56,33,104c10,48,21,98,24,110c4,19-7,15-87-33c-51-30-100-54-110-54
		c-11,0-38-9-61-21c-23-11-78-30-122-41c-74-20-112-22-487-25c-224-3-414,0-423,4c-12,7-2,20,51,63c114,93,181,198,243,385
		c39,117,131,536,131,596c0,41,66,348,92,429c45,141,107,234,181,271c91,47,222,31,287-36l34-35l3-118l2-117l90-3c50-1,91-1,91,1
		s18,93,40,202s40,206,40,215c0,21-145,91-236,114C1739,15591,1637,15593,1558,15580z"/>
	<path class="st0" d="M7451,15553c-47-8-123-28-170-45c-48-16-97-32-111-35c-69-15-280-170-405-297c-262-268-407-585-434-951
		c-16-218,19-433,91-563c59-105,119-187,168-228c154-130,316-184,555-184c349,0,614,118,901,401c136,133,200,228,282,414
		c97,220,134,395,136,640c1,228-32,369-123,518c-20,33-42,70-49,82c-7,13-40,49-74,79c-90,82-250,152-398,176
		C7729,15574,7550,15571,7451,15553z M7783,15361c111-43,197-158,237-317c60-233,39-599-50-864c-73-218-175-387-319-531
		c-77-77-112-104-178-137c-270-134-523-77-641,145c-52,99-73,204-79,403c-8,261,27,476,113,690c37,92,137,260,202,339
		c21,24,42,53,48,64c20,36,149,137,219,172c102,50,172,65,290,61C7699,15384,7740,15377,7783,15361z"/>
	<path class="st0" d="M13735,15564c-118-17-320-74-415-116c-242-107-556-441-678-720c-130-296-167-680-92-942
		c65-227,241-412,468-491c108-38,198-48,377-43c220,7,386,43,682,150l112,40l12,57c13,63,28,184,23,190c-2,2-45-15-96-37
		c-215-95-430-145-618-146c-64,0-139,5-170,13c-150,37-267,125-329,250c-59,117-75,193-75,356c0,159,16,259,69,432
		c19,61,35,118,35,127c0,24,65,160,119,249c106,175,244,319,370,385c114,61,174,76,311,75c142,0,221-16,312-65
		c103-54,133-129,105-261l-14-68l95,3l94,3l69,220c38,121,69,227,69,236c0,17-129,53-305,84C14178,15561,13803,15574,13735,15564z"
		/>
	<path class="st0" d="M2460,11903c-25-2-89-13-143-23c-53-11-184-27-290-35c-497-40-712-125-878-347c-86-116-134-203-164-293
		c-26-80-63-310-52-321c3-3,88,36,189,89l183,95l6,83c8,104,14,129,52,203c61,123,175,211,322,250c73,20,248,30,333,19l62-8l-86-150
		c-48-82-90-152-93-155c-11-8-131-219-131-229s-141-252-303-521c-303-502-464-669-691-716c-157-33-291,29-398,184l-31,44l-135-135
		L76,9801l24-27c56-60,174-129,286-166c60-20,88-23,224-23c117,0,171,4,220,18c79,21,208,83,273,129c60,44,190,187,270,298
		c34,47,64,87,68,90s29,41,57,85l49,80l356,3l355,2l6-37c3-21,17-182,32-358c14-176,27-321,28-322c3-3,729,117,732,120
		c4,4,34,160,34,174c0,13-17,14-124,8c-111-7-127-5-169,13c-67,30-95,95-126,292c-18,115-110,1219-116,1395c-9,287-14,335-33,333
		C2512,11907,2485,11905,2460,11903z M2204,10938c20-224,36-416,36-427c0-21-4-21-285-21c-157,0-285,3-285,6s23,43,50,90
		c28,47,50,89,50,95c0,5,9,22,19,37c11,15,90,151,177,302c147,257,194,334,200,327C2168,11346,2185,11161,2204,10938z"/>
	<path class="st0" d="M8884,11871c-168-62-356-195-574-407c-80-77-165-158-190-180c-25-21-128-117-228-213c-182-173-184-175-177-136
		c4,22,47,235,95,474l88,434l-206-6c-276-8-420-32-590-102c-126-51-227-119-322-214c-161-163-229-320-255-594l-7-68l196,98l196,98
		v65c0,130,37,217,142,337c95,108,214,163,350,163c55,0,58-1,53-22c-3-13-64-311-135-662c-129-634-150-723-190-810
		c-11-25-20-50-20-56c0-23-69-117-119-162c-68-61-140-88-235-88c-75,0-162,20-204,48c-36,23-122,117-156,169l-29,44l-143-142
		l-144-143l23-24c43-46,161-116,246-146c75-26,103-30,223-34c156-5,253,10,377,59c127,51,252,140,371,265c170,179,274,378,320,612
		c7,34,15,62,19,62c3,0,27-44,53-97c49-103,173-311,272-460c157-235,285-371,406-431c71-35,78-37,175-37c91,1,107,4,175,33
		c41,18,89,43,106,55c100,70,175,134,179,152c7,27,45,216,45,220c0,2-42-23-92-56c-217-140-274-145-410-36c-76,60-255,282-279,345
		c-11,29-240,425-249,432c-4,3-22,33-41,66l-33,61l29,39c101,132,383,434,406,434c5,0,40,24,77,53c157,126,309,208,396,214
		c51,4,54,3,129-49c16-12,33,2,152,127c74,77,134,143,135,146c0,4-34,24-76,45c-72,36-83,39-178,41
		C8956,11890,8924,11886,8884,11871z"/>
	<path class="st0" d="M13716,11874c-78-19-214-83-289-138c-171-122-347-373-377-538c-37-200-176-879-195-953
		c-45-173-105-268-188-300c-23-9-85-19-138-23l-95-7l-143-147l-142-147l33-5c63-9,1421-49,1502-43c157,10,254,57,446,217
		c68,57,90,81,90,100c1,14,9,65,20,115c10,49,17,92,15,94s-18-8-36-23c-47-40-202-112-302-140c-148-43-263-50-635-40l-333,9l40,31
		c54,41,172,186,206,254c70,139,94,228,199,745c96,472,121,551,207,652c55,64,96,82,184,83c158,0,221-75,214-248l-4-82h92h91l10,48
		c6,26,16,79,22,117c18,111,41,239,46,255c5,20-104,80-200,109C13974,11894,13809,11897,13716,11874z"/>
	<path class="st0" d="M1610,8223c-351-18-649-165-927-458c-51-53-93-101-93-105c0-5-21-42-46-81c-227-351-305-824-193-1174
		c40-125,90-206,189-305s167-135,320-170c196-46,434-35,745,32c55,12,346,115,357,126c8,8,59,245,54,250c-2,1-51-18-109-43
		c-234-100-371-134-572-142c-155-6-236,7-323,51c-294,149-379,525-226,1006c93,296,210,485,416,680c44,41,131,89,210,117
		c200,70,493,23,601-97c43-47,53-92,38-167c-19-98-23-93,78-93h89l36,108c19,59,51,161,72,227c20,66,39,125,41,131
		c6,16-221,70-372,88C1867,8220,1700,8228,1610,8223z"/>
	<path class="st0" d="M14890,8169c-90-11-166-22-169-24c-2-3-71-336-152-740c-165-820-153-778-277-949c-31-43-64-91-73-105
		c-25-42-149-141-215-173c-87-41-169-55-236-39c-75,16-113,42-152,105c-107,166-112,396-20,852c18,94,34,183,34,198
		c0,58,114,491,209,795l20,64l-217-6c-320-8-494-43-679-137c-119-60-217-133-274-203c-24-28-51-60-61-70c-28-27-95-174-117-257
		c-22-77-49-285-40-295c3-3,89,35,191,84l185,90l7,73c14,157,54,249,153,352c91,95,179,137,303,144l90,5l-16-54c-8-30-24-81-34-114
		c-77-247-193-795-221-1045c-32-286,35-533,186-684c66-65,75-71,175-110c152-58,293-59,467-1c121,40,190,83,290,181
		c40,38,73,69,73,68c0-2-14-69-30-150c-17-80-30-148-28-150c2-1,105,15,228,36c124,22,241,40,260,40s105,13,190,28l155,28l17,75
		c28,126,35,117-89,102c-128-15-189-10-227,20c-39,31-42,78-16,232c13,72,26,159,31,195c13,104,214,1073,274,1320
		c30,124,54,228,55,233C15140,8194,15072,8190,14890,8169z"/>
	<path class="st0" d="M7300,8139c-200-20-416-79-550-151c-91-48-219-144-230-172c-5-12-26-41-48-65c-50-55-105-165-136-274
		c-23-79-52-273-44-297c2-6,85,31,184,81l182,92l7,86c8,96,33,188,67,243c36,58,156,157,233,194c67,31,238,74,249,63
		c3-3-19-131-49-285c-30-153-89-454-131-669c-80-411-125-575-176-646c-44-60-117-91-234-97l-92-5l-149-148l-148-147l110-6
		c61-4,386-18,723-32c678-28,661-28,811,32c86,34,192,107,265,182c35,37,40,49,62,158c13,65,23,122,22,126c-2,4-34-18-73-48
		c-124-96-224-144-346-163c-59-10-434-2-688,15l-94,6l35,32c68,59,167,176,212,251c56,93,97,208,131,367c14,68,30,127,34,131
		c9,9,204-6,375-28l108-15l123,118l122,117l-347,5l-347,5l75,379l76,379l148-7c344-15,435-60,408-203c-18-98-21-93,74-93h85l71,223
		c39,122,75,234,80,250l9,27l-557-1C7636,8148,7347,8143,7300,8139z"/>
	<path class="st0" d="M1310,4473c-313-32-598-128-722-244c-18-17-48-42-66-57c-41-31-109-126-150-207c-43-88-78-207-91-315
		c-7-52-13-105-15-117c-2-13-1-23,1-23s30,14,63,30c33,17,64,30,70,30s62,25,125,56l115,56v57c0,138,45,261,130,354
		c74,81,233,155,372,172l54,7l-9-64c-15-107-237-1207-264-1307c-68-260-122-315-323-328l-85-6l-154-147l-154-148l129-6
		c351-18,1097-47,1234-49c141-2,160,0,215,21c72,28,157,74,206,113c20,16,41,29,45,29c5,0,35,24,66,53l57,52l25,125
		c13,69,23,126,22,128c-2,1-35-22-73-52c-121-95-229-145-353-165c-56-9-311-4-657,15l-122,6l32,26c49,39,147,135,147,144
		c0,5,18,35,40,67c78,114,122,229,165,431c13,61,26,114,29,117c6,6,238-13,386-32l105-14l116,122l116,122l-343,3c-189,1-344,4-344,5
		c0,9,142,714,147,731c5,18,13,19,157,12c239-11,331-32,385-90c22-23,23-31,17-88c-3-35-9-76-12-91l-6-28l93,3l93,3l22,75
		c13,41,45,150,73,241s51,169,51,172C2470,4480,1376,4480,1310,4473z"/>
	<path class="st0" d="M7280,4449c-109-13-270-47-357-75c-304-99-481-266-573-541c-28-85-60-251-60-316v-27l80,40c44,22,85,40,91,40
		s53,21,104,47l93,47l6,81c14,176,75,299,190,385c62,46,224,108,307,117c57,6,61,5,56-13c-3-10-29-140-57-289
		c-187-980-218-1121-271-1235c-35-75-68-113-124-143c-34-19-55-22-135-21l-96,2l-154-149l-155-149h55c30,0,262-9,515-20l460-20
		l145,148l145,147l-110,6c-61,4-177,7-260,8l-150,2l37,32c76,66,188,220,248,340c54,108,66,145,105,325c5,21,10,22,108,22h102l38-69
		c20-38,37-73,37-79s16-39,37-74c20-34,83-148,140-253c133-241,196-337,275-413c209-202,305-191,628,70c112,91,121,107,156,282
		l31,155l-121-123c-132-133-236-214-288-222c-30-5-38-1-79,43c-65,70-132,167-185,269c-25,49-60,109-76,134c-48,70-218,358-218,368
		c0,4,17,16,38,26c63,30,203,125,246,167c23,22,56,55,74,72c105,100,172,260,172,412c-1,94-14,147-54,209c-80,126-186,183-406,222
		C7960,4455,7408,4465,7280,4449z M7873,4254c37-9,96-33,130-54c51-31,67-47,91-94c26-50,29-66,29-144c-1-219-83-361-283-493l-74-49
		h-153c-109,0-153,3-153,12c0,11,155,778,167,827c6,23,7,24,92,18C7766,4274,7836,4264,7873,4254z"/>
	<path class="st0" d="M13470,4449c-109-13-228-36-323-64c-97-28-260-108-331-162c-27-21-59-45-72-53c-49-33-131-148-176-248
		c-37-81-74-223-82-317c-4-38-9-80-12-92c-4-20,1-19,89,19c50,22,138,62,195,89l102,49v60c0,193,111,379,269,451
		c112,52,281,87,281,59c0-19-251-1244-271-1322c-23-93-68-218-95-268c-31-56-110-90-226-97l-93-6l-150-144c-83-80-145-147-140-148
		c22-8,794-37,990-38c164-1,232,2,310,17c139,25,255,60,354,107c46,21,88,39,92,39c18,0,167,120,215,173c28,30,66,85,86,123
		c93,179,75,366-48,504c-51,55-231,181-288,200c-34,11-49,30-24,30c17,0,204,96,255,131c23,16,46,29,51,29c19,0,128,127,159,185
		c49,93,66,174,61,285c-4,78-10,105-32,149c-75,147-240,231-508,260C13995,4462,13579,4461,13470,4449z M14042,4250
		c62-19,140-66,164-99c7-8,17-48,24-87c10-57,10-90,0-160c-16-113-49-181-122-255c-90-91-255-159-390-159c-40,0-58,4-58,13
		c0,6,34,185,77,396l78,384l81-7C13941,4273,14007,4261,14042,4250z M13810,3274c243-69,361-276,306-535c-50-235-223-320-593-291
		c-146,11-311,37-325,50c-4,4,18,27,48,52c100,82,202,219,269,363c47,101,65,158,90,287c10,47,20,89,22,94
		C13634,3305,13740,3293,13810,3274z"/>
</g>
</svg>
